<?xml version="1.0" standalone="no"?>
<!DOCTYPE svg PUBLIC "-//W3C//DTD SVG 20010904//EN"
 "http://www.w3.org/TR/2001/REC-SVG-20010904/DTD/svg10.dtd">
<svg version="1.0" xmlns="http://www.w3.org/2000/svg"
 width="128.000000pt" height="44.000000pt" viewBox="0 0 128.000000 44.000000"
 preserveAspectRatio="xMidYMid meet">

<g transform="translate(0.000000,44.000000) scale(0.100000,-0.100000)"
fill="#000000" stroke="none">
<path d="M403 411 c-73 -20 -153 -56 -153 -69 1 -28 23 -35 129 -40 61 -2 111
-9 111 -13 0 -4 -35 -10 -77 -12 -43 -1 -4 -3 87 -4 122 0 147 2 95 7 -38 4
-76 5 -82 3 -7 -3 -13 0 -13 6 0 9 53 11 196 9 215 -3 203 -8 126 52 -38 29 5
7 47 -24 37 -28 56 -32 66 -16 10 16 -174 103 -225 106 -226 14 -235 14 -307
-5z m337 -11 c8 -5 11 -10 5 -10 -5 0 -17 5 -25 10 -8 5 -10 10 -5 10 6 0 17
-5 25 -10z"/>
<path d="M290 400 c-8 -5 -10 -10 -5 -10 6 0 17 5 25 10 8 5 11 10 5 10 -5 0
-17 -5 -25 -10z"/>
<path d="M208 368 c-27 -11 -48 -25 -48 -29 0 -8 94 33 109 47 10 9 -17 1 -61
-18z"/>
<path d="M102 283 c32 -2 84 -2 115 0 32 2 6 3 -57 3 -63 0 -89 -1 -58 -3z"/>
<path d="M795 269 l-100 -5 103 -2 102 -2 0 -32 0 -33 -199 3 c-179 2 -200 5
-204 20 -4 13 -5 13 -6 2 -1 -12 -17 -15 -90 -13 -49 1 -99 7 -111 13 -13 7
-33 9 -48 5 -15 -4 -67 -8 -117 -8 l-90 -1 77 -3 77 -4 -25 -36 c-22 -33 -34
-90 -16 -79 5 3 16 -8 26 -25 l17 -29 -33 -1 c-23 -1 -17 -4 22 -9 74 -11 923
-11 980 -1 25 5 37 9 27 10 -15 1 -16 5 -7 21 6 11 17 20 25 20 22 0 19 59 -5
98 -27 44 -80 67 -125 52 -18 -6 -40 -19 -49 -29 -14 -15 -24 -17 -59 -10 -23
4 -45 8 -49 9 -13 0 -9 58 4 62 27 9 -32 13 -127 7z m-161 -84 l268 -7 -5 -32
c-3 -17 -8 -40 -11 -51 -4 -11 0 -6 8 10 8 17 15 40 16 53 0 20 5 22 46 22 40
0 45 -2 39 -18 -4 -9 -9 -31 -12 -49 -4 -22 -12 -33 -27 -36 -11 -2 0 -5 25
-6 27 0 49 -6 52 -13 3 -10 -69 -12 -349 -10 -295 2 -352 5 -348 16 3 8 14 16
25 19 16 4 19 11 13 34 -3 15 -15 41 -26 57 -19 26 -19 28 -2 23 11 -3 140 -9
288 -12z m-351 -6 c28 -15 37 -28 37 -58 0 -36 -28 -61 -66 -61 -67 0 -85 86
-24 117 31 15 27 15 53 2z m867 -9 c41 -41 13 -110 -45 -110 -58 0 -86 69 -45
110 11 11 31 20 45 20 14 0 34 -9 45 -20z"/>
<path d="M530 111 c5 -11 15 -23 21 -27 6 -3 3 5 -6 20 -20 30 -30 35 -15 7z"/>
<path d="M246 128 c3 -4 -1 -8 -8 -8 -10 0 -10 -2 1 -9 8 -5 20 -7 27 -4 16 6
8 30 -11 30 -8 0 -12 -4 -9 -9z"/>
<path d="M1087 130 c-3 -11 1 -21 9 -24 8 -3 14 -1 14 5 0 6 5 7 10 4 12 -7
13 5 2 20 -12 17 -30 15 -35 -5z"/>
<path d="M20 249 c0 -25 33 -22 38 4 2 12 -3 17 -17 17 -15 0 -21 -6 -21 -21z"/>
<path d="M978 253 c12 -2 30 -2 40 0 9 3 -1 5 -23 4 -22 0 -30 -2 -17 -4z"/>
</g>
</svg>
